<svg xmlns="http://www.w3.org/2000/svg" viewBox="0 0 100 100" role="img" aria-label="Mizona Ecológica"><path fill="#46894E" d="M50.0 46.0C36.0 34.0 35.0 18.0 50.0 5.0C65.0 18.0 64.0 34.0 50.0 46.0ZM53.8 48.76C60.89 31.74 75.8 25.85 92.8 36.09C85.07 54.38 69.54 58.37 53.8 48.76ZM52.35 53.24C70.73 54.72 80.94 67.07 76.45 86.41C56.67 84.71 48.08 71.17 52.35 53.24ZM47.65 53.24C51.92 71.17 43.33 84.71 23.55 86.41C19.06 67.07 29.27 54.72 47.65 53.24ZM46.2 48.76C30.46 58.37 14.93 54.38 7.2 36.09C24.2 25.85 39.11 31.74 46.2 48.76Z"/></svg>
